<svg width="208" height="210" viewBox="0 0 208 210" fill="none" xmlns="http://www.w3.org/2000/svg">
<g opacity="0.1">
<path d="M128.809 104.767C128.892 118.443 117.873 129.596 104.198 129.679C90.5222 129.762 79.3689 118.743 79.286 105.068C79.203 91.3923 90.2219 80.239 103.897 80.1561C117.573 80.0732 128.726 91.092 128.809 104.767Z" fill="white"/>
<path fill-rule="evenodd" clip-rule="evenodd" d="M104.678 208.916C157.07 208.598 200.179 169.593 207.082 119.15L146.172 119.52C140.158 136.868 123.724 149.37 104.318 149.488C84.9114 149.606 68.3266 137.303 62.103 120.029L1.1926 120.399C8.7072 170.754 52.2857 209.233 104.678 208.916ZM61.9229 90.3156L1.01242 90.6849C7.9158 40.2423 51.0245 1.23715 103.417 0.919457C155.809 0.60176 199.388 39.0813 206.902 89.4364L145.992 89.8058C139.768 72.5318 123.183 60.2293 103.777 60.3469C84.3708 60.4646 67.9365 72.9673 61.9229 90.3156ZM128.809 104.767C128.892 118.443 117.873 129.596 104.198 129.679C90.5222 129.762 79.3689 118.743 79.286 105.068C79.203 91.3923 90.2219 80.239 103.897 80.1561C117.573 80.0732 128.726 91.092 128.809 104.767Z" fill="white"/>
</g>
</svg>
