<svg width="18" height="19" viewBox="0 0 18 19" fill="none" xmlns="http://www.w3.org/2000/svg">
<path d="M9.51159 18.1022L10.2803 17.3241C10.4622 17.1399 10.4604 16.8431 10.2763 16.6612L4.17986 10.6383L17.5168 10.5574C17.7756 10.5558 17.9842 10.3447 17.9827 10.0858L17.976 8.9921C17.9745 8.73324 17.7633 8.52463 17.5045 8.5262L4.16755 8.60708L10.1905 2.51068C10.3724 2.32652 10.3706 2.02973 10.1864 1.84776L9.40837 1.0791C9.22421 0.897171 8.92742 0.898971 8.74545 1.08312L0.614964 9.31281C0.43303 9.49696 0.43483 9.79376 0.618983 9.97573L8.84867 18.1062C9.03283 18.2881 9.32962 18.2863 9.51159 18.1022Z" fill="white"/>
</svg>
