<svg width="9" height="17" viewBox="0 0 9 17" fill="none" xmlns="http://www.w3.org/2000/svg">
<path d="M7.52477 0.237919L1.52488 0.274301C0.972707 0.27765 0.527618 0.728169 0.530966 1.28035L0.615858 15.2801C0.619206 15.8323 1.06973 16.2774 1.6219 16.274L7.62179 16.2376C8.17397 16.2343 8.61906 15.7838 8.61571 15.2316L8.53082 1.23184C8.52747 0.67966 8.07695 0.234571 7.52477 0.237919ZM1.61584 15.274L1.53095 1.27428L7.53084 1.2379L7.54296 3.23786L5.793 3.24848C5.65487 3.24931 5.54368 3.36186 5.54452 3.49999L5.54755 3.99998C5.54839 4.1381 5.66094 4.24929 5.79906 4.24846L7.54903 4.23785L7.56116 6.23781L5.81119 6.24842C5.67307 6.24926 5.56187 6.36181 5.56271 6.49993L5.56574 6.99992C5.56658 7.13804 5.67913 7.24924 5.81725 7.2484L7.56722 7.23779L7.57935 9.23775L5.82938 9.24836C5.69126 9.2492 5.58006 9.36175 5.5809 9.49988L5.58393 9.99987C5.58477 10.138 5.69732 10.2492 5.83544 10.2483L7.58541 10.2377L7.59754 12.2377L5.84757 12.2483C5.70945 12.2491 5.59825 12.3617 5.59909 12.4998L5.60212 12.9998C5.60296 13.1379 5.71551 13.2491 5.85363 13.2483L7.6036 13.2377L7.61573 15.2376L1.61584 15.274Z" fill="#212121"/>
</svg>
