<svg width="21" height="33" viewBox="0 0 21 33" fill="none" xmlns="http://www.w3.org/2000/svg">
<g clip-path="url(#clip0)">
<path d="M7.00817 15.899L6.64867 17.6312L7.96864 17.6232L7.97471 18.6232L6.44473 18.6325L6.05596 20.4849L4.96598 20.4915L5.35475 18.6391L3.39479 18.651L3.00602 20.5034L1.91604 20.51L2.30481 18.6576L0.754839 18.667L0.748775 17.667L2.50874 17.6563L2.86825 15.9241L1.32827 15.9335L1.32221 14.9335L3.07218 14.9229L3.45114 13.1005L4.54112 13.0939L4.16216 14.9163L6.12212 14.9044L6.50108 13.082L7.59106 13.0754L7.2121 14.8978L8.54208 14.8897L8.54814 15.8897L7.00817 15.899ZM5.91819 15.9056L3.95823 15.9175L3.59872 17.6497L5.55869 17.6378L5.91819 15.9056Z" fill="#212121"/>
<g clip-path="url(#clip1)">
<path d="M20.3279 19.5065L20.0739 19.2555C19.9055 19.0891 19.6342 19.0908 19.4678 19.2591L16.5059 22.2746L16.4245 8.85029C16.423 8.61361 16.23 8.42289 15.9933 8.42432L15.6362 8.42649C15.3995 8.42792 15.2088 8.62098 15.2102 8.85765L15.2916 22.282L12.2933 19.3026C12.125 19.1363 11.8536 19.138 11.6872 19.3063L11.4363 19.5604C11.2699 19.7288 11.2716 20.0001 11.44 20.1664L15.608 24.3014C15.7763 24.4678 16.0477 24.4661 16.2141 24.2978L20.3316 20.1125C20.498 19.9442 20.4963 19.6728 20.3279 19.5065Z" fill="#212121"/>
</g>
</g>
<defs>
<clipPath id="clip0">
<path d="M0.243578 8.51987C0.216787 4.10168 3.77672 0.498301 8.19492 0.47151L12.1948 0.447255C16.613 0.420464 20.2164 3.9804 20.2432 8.3986L20.3402 24.3983C20.367 28.8165 16.8071 32.4199 12.3889 32.4467L8.38896 32.4709C3.97076 32.4977 0.367388 28.9378 0.340597 24.5196L0.243578 8.51987Z" fill="white"/>
</clipPath>
<clipPath id="clip1">
<rect width="9" height="16" fill="white" transform="translate(11.2434 8.45312) rotate(-0.347425)"/>
</clipPath>
</defs>
</svg>
