<svg width="17" height="17" viewBox="0 0 17 17" fill="none" xmlns="http://www.w3.org/2000/svg">
<path d="M14.5387 2.85031L12.5134 2.86259C11.5924 1.66128 10.1539 0.876866 8.52671 0.886732C6.89955 0.896599 5.47064 1.6984 4.56422 2.9108L2.53895 2.92308C1.43615 2.92976 0.544423 3.83238 0.55111 4.93517L0.611747 14.935C0.618434 16.0378 1.52105 16.9295 2.62384 16.9228L14.6236 16.8501C15.7264 16.8434 16.6181 15.9408 16.6115 14.838L16.5508 4.83815C16.5441 3.73536 15.6415 2.84363 14.5387 2.85031ZM8.53277 1.88671C10.7418 1.87332 12.5436 3.65336 12.557 5.86239C12.5703 8.07141 10.7903 9.87317 8.58128 9.88657C6.37226 9.89996 4.5705 8.11992 4.5571 5.91089C4.54371 3.70187 6.32375 1.90011 8.53277 1.88671ZM15.6115 14.844C15.6148 15.3962 15.1697 15.8467 14.6176 15.8501L2.61777 15.9228C2.0656 15.9262 1.61508 15.4811 1.61173 14.9289L1.55109 4.9291C1.54774 4.37693 1.99283 3.92641 2.54501 3.92306L3.96873 3.91443C3.70308 4.52949 3.5528 5.2051 3.55712 5.91696C3.57384 8.67378 5.83052 10.9033 8.58734 10.8865C11.3442 10.8698 13.5737 8.61315 13.5569 5.85632C13.5526 5.14446 13.3942 4.47072 13.1211 3.85893L14.5448 3.85029C15.097 3.84695 15.5475 4.29204 15.5508 4.84421L15.6115 14.844ZM8.57522 8.88658C9.40239 8.88157 10.0711 8.20469 10.0661 7.37752C10.0635 6.94253 9.87204 6.55493 9.57382 6.28267L10.5054 4.07167C10.6126 3.81758 10.4934 3.52423 10.2386 3.41702C9.98549 3.30981 9.69121 3.42878 9.584 3.68381L8.65177 5.89575C7.54323 5.83029 7.06248 6.79103 7.06615 7.39571C7.07117 8.22288 7.74805 8.8916 8.57522 8.88658ZM8.56309 6.88662C8.83934 6.88495 9.06444 7.10734 9.06611 7.38358C9.06779 7.65983 8.8454 7.88493 8.56915 7.8866C8.29291 7.88828 8.06781 7.66589 8.06613 7.38964C8.06446 7.1134 8.28685 6.8883 8.56309 6.88662Z" fill="#212121"/>
</svg>
